<?xml version="1.0" encoding="utf-8"?>
<!-- Generator: Adobe Illustrator 21.0.0, SVG Export Plug-In . SVG Version: 6.00 Build 0)  -->
<svg version="1.1" id="Ebene_1" xmlns="http://www.w3.org/2000/svg" xmlns:xlink="http://www.w3.org/1999/xlink" x="0px" y="0px"
	 viewBox="0 0 130 130" style="enable-background:new 0 0 130 130;" xml:space="preserve">
<style type="text/css">
	.st0{opacity:0.3;}
	.st1{fill:#FFFFFF;}
	.st2{fill:#0C0C24;}
</style>
<g>
	<g class="st0">
		<path class="st1" d="M16.4,61.9c4.5,0,7.8-2.1,9.8-6.4v5.8H34V29h-7.8v15.9c-0.1,3.2-0.9,5.7-2.6,7.6c-0.8,0.8-1.6,1.5-2.6,1.9
			c-1,0.4-2.3,0.6-3.7,0.6c-1.5,0-2.7-0.5-3.7-1.6c-1-1-1.5-2.6-1.5-4.7V29H4.1v20.5c0,2.2,0.3,4.1,1,5.6
			C6.9,59.7,10.7,61.9,16.4,61.9"/>
		<path class="st1" d="M49.5,47.2c0-7.2,2.6-10.8,7.8-10.8c1.2,0,2.4,0.1,3.6,0.4l0.1-7.8c-1.1-0.3-2.1-0.5-2.8-0.5
			c-3.9,0-6.8,2.3-8.7,7V29h-7.8v32.3h7.8V47.2z"/>
		<path class="st1" d="M73.6,55.7c1,2.2,2.3,3.8,3.9,4.9c1.7,1.1,3.5,1.6,5.5,1.6c4.1,0,7.6-1.6,10.4-4.7c2.9-3.3,4.3-7.4,4.3-12.5
			c0-5-1.4-9.1-4.1-12.2c-2.7-3.1-6.1-4.6-10.1-4.6c-4,0-7.1,1.6-9.1,4.9V15.9h-7.8v45.4h5.1L73.6,55.7z M74.4,43.2
			c0-2.4,0.7-4.3,2.2-5.8c1.5-1.5,3.3-2.2,5.5-2.2c2.2,0,4.1,0.9,5.5,2.7c1.5,1.8,2.2,4.2,2.2,7.2c0,3-0.8,5.4-2.3,7.3
			c-1.5,1.8-3.3,2.7-5.4,2.7c-2.1,0-3.9-0.7-5.3-2.1c-1.5-1.5-2.4-3.3-2.4-5.6V43.2z"/>
		<polygon class="st1" points="127.5,54.9 111.3,54.9 127.5,35.5 127.5,29.1 102.2,29.1 102.2,35.5 118.9,35.5 102.2,54.9 
			102.2,61.3 127.5,61.3 		"/>
		<polygon class="st1" points="3.5,115.3 3.5,77.7 10.9,77.7 10.9,97.9 31.8,77.7 127.5,77.7 127.5,85.1 34.8,85.1 		"/>
	</g>
	<g>
		<g>
			<path class="st2" d="M15.4,60.9c4.5,0,7.8-2.1,9.8-6.4v5.8H33V28h-7.8v15.9c-0.1,3.2-0.9,5.7-2.6,7.6c-0.8,0.8-1.6,1.5-2.6,1.9
				c-1,0.4-2.3,0.6-3.7,0.6c-1.5,0-2.7-0.5-3.7-1.6c-1-1-1.5-2.6-1.5-4.7V28H3.1v20.5c0,2.2,0.3,4.1,1,5.6
				C5.9,58.7,9.7,60.9,15.4,60.9"/>
			<path class="st2" d="M48.5,46.2c0-7.2,2.6-10.8,7.8-10.8c1.2,0,2.4,0.1,3.6,0.4l0.1-7.8c-1.1-0.3-2.1-0.5-2.8-0.5
				c-3.9,0-6.8,2.3-8.7,7V28h-7.8v32.3h7.8V46.2z"/>
			<path class="st2" d="M72.6,54.7c1,2.2,2.3,3.8,3.9,4.9c1.7,1.1,3.5,1.6,5.5,1.6c4.1,0,7.6-1.6,10.4-4.7c2.9-3.3,4.3-7.4,4.3-12.5
				c0-5-1.4-9.1-4.1-12.2c-2.7-3.1-6.1-4.6-10.1-4.6c-4,0-7.1,1.6-9.1,4.9V14.9h-7.8v45.4h5.1L72.6,54.7z M73.4,42.2
				c0-2.4,0.7-4.3,2.2-5.8c1.5-1.5,3.3-2.2,5.5-2.2c2.2,0,4.1,0.9,5.5,2.7c1.5,1.8,2.2,4.2,2.2,7.2c0,3-0.8,5.4-2.3,7.3
				c-1.5,1.8-3.3,2.7-5.4,2.7c-2.1,0-3.9-0.7-5.3-2.1c-1.5-1.5-2.4-3.3-2.4-5.6V42.2z"/>
			<polygon class="st2" points="126.5,53.9 110.3,53.9 126.5,34.5 126.5,28.1 101.2,28.1 101.2,34.5 117.9,34.5 101.2,53.9 
				101.2,60.3 126.5,60.3 			"/>
			<polygon class="st2" points="2.5,114.3 2.5,76.7 9.9,76.7 9.9,96.9 30.8,76.7 126.5,76.7 126.5,84.1 33.8,84.1 			"/>
		</g>
	</g>
</g>
</svg>
